<svg version="1.1" xmlns="http://www.w3.org/2000/svg" style="fill:#353535" width="320" height="320" viewBox="0 0 31.98334200937012 31.716814159292035"><path d="M11.294118 -0.000000 L11.294118 5.647059 L13.176471 5.647059 L13.176471 1.882353 L30.100989 1.882353 L30.100989 15.058824 L26.336283 15.058824 L26.336283 19.373243 L22.005206 15.058824 L20.689224 15.058824 L20.689224 7.529412 L0.000000 7.529412 L0.000000 24.453930 L5.647059 24.453930 L5.647059 31.433628 L12.610099 24.453930 L20.689224 24.453930 L20.689224 16.924518 L21.238938 16.924518 L28.218636 23.920875 L28.218636 16.924518 L31.983342 16.924518 L31.983342 -0.000000 Z M5.647059 15.058824 L15.042166 15.058824 L15.042166 13.176471 L5.647059 13.176471 Z M5.647059 18.806871 L11.294118 18.806871 L11.294118 16.924518 L5.647059 16.924518 Z M1.882353 9.411765 L18.806871 9.411765 L18.806871 22.571577 L11.827173 22.571577 L7.529412 26.902655 L7.529412 22.571577 L1.882353 22.571577 Z M31.983342 31.716814" /></svg>