<svg
  version="1.1"
  xmlns="http://www.w3.org/2000/svg"
  width="320"
  height="320"
  viewBox="0 0 31.98334200937012 31.98430326915459"
>
  <path
    d="M15.975013 22.572539 C16.197121 22.572539 16.452541 22.600302 16.741281 22.655829 L16.691307 23.572018 C16.680201 23.816336 16.583031 24.024559 16.399792 24.196693 C16.216553 24.368826 16.002778 24.454892 15.758459 24.454892 C14.703448 24.454892 13.920530 24.776943 13.409682 25.421055 C13.065416 25.865270 12.832206 26.470505 12.710047 27.236776 C12.621204 27.858677 12.610099 28.541648 12.676731 29.285709 C12.721152 29.863189 12.798889 30.374029 12.909943 30.818244 C12.943259 30.951509 12.943259 31.090324 12.909943 31.234694 C12.876627 31.379064 12.821101 31.512326 12.743363 31.634485 C12.543466 31.867699 12.299151 31.984303 12.010411 31.984303 L8.462259 31.984303 C8.206835 31.984303 7.987507 31.892685 7.804269 31.709446 C7.621030 31.526208 7.529412 31.306880 7.529412 31.051456 L7.529412 22.572539 Z M26.436231 0.517359 C26.536180 0.328567 26.683324 0.186976 26.877668 0.092580 C27.072012 -0.001816 27.277459 -0.024026 27.494014 0.025948 C27.710568 0.075922 27.885476 0.186975 28.018740 0.359108 C28.152005 0.531241 28.218636 0.722806 28.218636 0.933809 L28.218636 9.496016 C28.929381 9.640386 29.570707 9.934674 30.142634 10.378889 C30.714561 10.823105 31.164322 11.370037 31.491931 12.019701 C31.819540 12.669366 31.983342 13.366219 31.983342 14.110279 C31.983342 14.854340 31.819540 15.551192 31.491931 16.200857 C31.164322 16.850522 30.714561 17.397454 30.142634 17.841669 C29.570707 18.285885 28.929381 18.580173 28.218636 18.724543 L28.218636 27.286750 C28.218636 27.497752 28.152005 27.689317 28.018740 27.861451 C27.885476 28.033584 27.713345 28.147412 27.502343 28.202939 C27.424605 28.214045 27.352421 28.219597 27.285789 28.219597 C27.108103 28.219597 26.941524 28.172400 26.786049 28.078004 C26.630574 27.983609 26.513969 27.858675 26.436231 27.703200 C25.647749 26.115130 24.620516 24.776951 23.354503 23.688624 C22.343913 22.811299 21.205628 22.117223 19.939615 21.606375 C19.040079 21.228792 18.118346 20.967820 17.174388 20.823450 C16.674646 20.734606 16.280411 20.690186 15.991671 20.690186 L6.579906 20.690186 C5.735897 20.690186 4.947427 20.479187 4.214472 20.057182 C3.503727 19.635177 2.942914 19.068811 2.532015 18.358067 C2.098905 17.636217 1.882353 16.847747 1.882353 15.992632 L1.882353 15.043127 L0.932847 15.043127 C0.677424 15.043127 0.458096 14.951509 0.274857 14.768270 C0.091618 14.585031 0.000000 14.365703 0.000000 14.110279 C0.000000 13.854856 0.091618 13.635528 0.274857 13.452289 C0.458096 13.269050 0.677424 13.177432 0.932847 13.177432 L1.882353 13.177432 L1.882353 12.227926 C1.882353 11.383917 2.098905 10.595447 2.532015 9.862492 C2.942914 9.151747 3.503727 8.585381 4.214472 8.163377 C4.947427 7.741372 5.735897 7.530373 6.579906 7.530373 L15.991671 7.530373 C16.335938 7.530373 16.757936 7.485952 17.257678 7.397109 C18.201636 7.241634 19.123369 6.975109 20.022905 6.597526 C21.266708 6.086678 22.388334 5.392602 23.387819 4.515277 C24.631622 3.438055 25.647749 2.105429 26.436231 0.517359 Z M31.983342 31.984303"
  />
</svg>
