<svg version="1.1" xmlns="http://www.w3.org/2000/svg" width="26" height="26" style="fill:white" viewBox="0 0 31.98334200937012 31.98334200937012"><path d="M24.453930 -0.000000 L24.453930 9.411765 L22.571577 9.411765 L22.571577 1.882353 L1.882353 1.882353 L1.882353 30.100989 L22.571577 30.100989 L22.571577 26.336283 L24.453930 26.336283 L24.453930 31.983342 L0.000000 31.983342 L0.000000 -0.000000 Z M26.619469 9.678293 C26.797155 9.500606 27.016483 9.411765 27.277460 9.411765 C27.538436 9.411765 27.763317 9.500606 27.952108 9.678293 L31.700156 13.442998 C31.888948 13.631790 31.983342 13.853894 31.983342 14.109318 C31.983342 14.364742 31.888948 14.586846 31.700156 14.775638 L20.422697 26.069755 C20.233905 26.247441 20.011801 26.336283 19.756377 26.336283 L15.991671 26.336283 C15.736247 26.336283 15.516919 26.244665 15.333680 26.061426 C15.150442 25.878188 15.058824 25.658860 15.058824 25.403436 L15.058824 21.638730 C15.058824 21.372201 15.147665 21.150096 15.325351 20.972410 Z M24.020822 14.925560 L16.924518 22.021864 L16.924518 24.453930 L19.356585 24.453930 L26.452889 17.357626 Z M11.294118 20.689224 L11.294118 22.571577 L5.647059 22.571577 L5.647059 20.689224 Z M15.058824 16.924518 L15.058824 18.806871 L5.647059 18.806871 L5.647059 16.924518 Z M27.285789 11.677251 L25.353462 13.592920 L27.785528 16.024987 L29.717855 14.109318 Z M18.806871 5.647059 L18.806871 13.176471 L5.647059 13.176471 L5.647059 5.647059 Z M16.924518 7.529412 L7.529412 7.529412 L7.529412 11.294118 L16.924518 11.294118 Z M31.983342 31.983342" /></svg>