<svg version="1.1" xmlns="http://www.w3.org/2000/svg" style="fill:#353535" width="320" height="320" viewBox="0 0 31.98334200937012 31.98334200937012"><path d="M18.806871 20.689224 L18.806871 22.571577 L5.647059 22.571577 L5.647059 20.689224 Z M26.336283 15.058824 L26.336283 16.924518 L5.647059 16.924518 L5.647059 15.058824 Z M10.344612 -0.000000 C10.855460 -0.000000 11.327431 0.127710 11.760541 0.383134 C12.193651 0.638558 12.537913 0.980043 12.793337 1.407600 C13.048761 1.835157 13.176471 2.304353 13.176471 2.815200 C13.176471 3.226100 13.082076 3.631440 12.893285 4.031234 L16.657991 7.795940 L15.325351 9.128579 L11.560645 5.363873 C11.160852 5.552664 10.755511 5.647059 10.344612 5.647059 C9.833765 5.647059 9.361793 5.519349 8.928683 5.263925 C8.495573 5.008501 8.154088 4.664240 7.904217 4.231130 C7.654345 3.798020 7.529412 3.326048 7.529412 2.815200 C7.529412 2.304353 7.654345 1.835157 7.904217 1.407600 C8.154088 0.980043 8.495573 0.638558 8.928683 0.383134 C9.361793 0.127710 9.833765 -0.000000 10.344612 -0.000000 Z M5.730349 3.764706 C5.874719 4.475450 6.169007 5.116777 6.613222 5.688704 C7.057438 6.260631 7.604369 6.710392 8.254034 7.038001 C8.903699 7.365610 9.600552 7.529412 10.344612 7.529412 C10.577825 7.529412 10.799930 7.507201 11.010932 7.462780 L15.325351 11.793857 L19.323269 7.812598 L15.275377 3.764706 L31.983342 3.764706 L31.983342 22.571577 L22.571577 22.571577 L22.571577 31.983342 L0.000000 31.983342 L0.000000 3.764706 Z M31.866736 24.453930 L24.453930 31.866736 L24.453930 24.453930 Z M31.983342 31.983342" /></svg>